<svg xmlns="http://www.w3.org/2000/svg" viewBox="0 0 511.998 511.998"><g fill="#c68f7b"><path d="M256 61.001H36v65h220zM146 126.001H10v64.998h136z"/></g><path fill="#8e6a5c" d="M146 126.001v64.998h220v-64.998H256z"/><path fill="#fcc8a4" d="M256 190.999H36v64.999h220z"/><g fill="#c68f7b"><path d="M256 190.999v64.999h220.002v-64.999H366zM146 321v-65.002H10V321h26z"/></g><path fill="#8e6a5c" d="M146 255.998V321h220v-65.002H256z"/><g fill="#c68f7b"><path d="M366 255.998V321h135.998v-65.002h-25.996zM256 321H36v64.999h220z"/></g><path fill="#fcc8a4" d="M256 321v64.999h220.002V321H366z"/><path fill="#c68f7b" d="M366 385.999v64.998h135.998v-64.998h-25.996z"/><path fill="#8e6a5c" d="M366 450.997v-64.998H146v64.998z"/><path fill="#fcc8a4" d="M146 450.997v-64.998H10v64.998z"/><g fill="#000001"><path d="M334.125 375.999h-.419c-5.522 0-10 4.478-10 10 0 5.523 4.478 10 10 10h.419c5.523 0 10-4.477 10-10s-4.477-10-10-10z"/><path d="M501.998 331c5.523 0 10-4.477 10-10v-65.002c0-5.523-4.477-10-10-10h-15.996v-54.999c0-5.523-4.478-10-10-10H376V126c0-5.523-4.477-10-10-10H266V61c0-5.524-4.477-10-10-10H36c-5.522 0-10 4.476-10 10v55H10c-5.523 0-10 4.477-10 10v64.999c0 5.523 4.477 10 10 10h16v44.999H10c-5.523 0-10 4.477-10 10V321c0 5.523 4.477 10 10 10h16v44.999H10c-5.523 0-10 4.478-10 10v64.999c0 5.523 4.477 10 10 10h491.998c5.523 0 10-4.477 10-10v-64.999c0-5.522-4.477-10-10-10h-15.996V331h15.996zm-10-20H376v-45.003H491.998V311zM256 311H156v-45.003h200V311H256zm210.002-65.002H266v-44.999h200.002v44.999zM356 180.999H156V136h200v44.999zM46 71.001h200v45H46v-45zm-26 65h116V181H20v-44.999zm26 64.998h200v44.999H46v-44.999zm-26 64.999h116V311H20v-45.002zM46 331h200v44.999H46V331zm-26 64.999h116v44.999H20v-44.999zm471.998 44.998H376v-44.999h115.998v44.999zm-25.996-64.998H366c-5.523 0-10 4.478-10 10v54.999H156v-44.999h150.517c5.523 0 10-4.477 10-10 0-5.522-4.477-10-10-10H266V331h200.002v44.999z"/></g></svg>
