<svg xmlns="http://www.w3.org/2000/svg" viewBox="0 0 512 512"><path d="M512 168.316c0-32.748-10.197-60.547-25.454-74.459C465 51.433 384.513 58.445 313.399 64.651c-21.366 1.864-41.553 3.623-57.399 3.661-15.846-.039-36.033-1.798-57.399-3.661C127.486 58.447 47 51.432 25.454 93.857 10.197 107.768 0 135.568 0 168.316c0 18.328 3.203 35.096 8.689 48.761A7.955 7.955 0 0 0 8 220.316c0 46.345 10.999 78.972 33.624 99.746 23.577 21.648 56.672 27.353 92.686 27.353 20.315 0 41.562-1.816 62.548-3.61 17.084-1.46 34.654-2.952 51.143-3.367v68.273l-29.657 29.657a7.998 7.998 0 0 0 0 11.313c1.562 1.562 3.609 2.343 5.657 2.343s4.095-.781 5.657-2.343L256 423.338l26.343 26.343c1.562 1.562 3.609 2.343 5.657 2.343s4.095-.781 5.657-2.343a7.998 7.998 0 0 0 0-11.313L264 408.711v-68.273c16.489.414 34.059 1.906 51.143 3.367 20.989 1.794 42.229 3.61 62.548 3.61 36.01 0 69.11-5.707 92.686-27.353C493.001 299.288 504 266.66 504 220.316a7.958 7.958 0 0 0-.689-3.239c5.486-13.666 8.689-30.433 8.689-48.761zm-16 0c0 19.025-3.834 36.788-10.795 50.014-6.016 11.43-13.745 17.986-21.205 17.986s-15.189-6.556-21.205-17.986C435.834 205.103 432 187.341 432 168.316s3.834-36.788 10.795-50.014c6.016-11.43 13.745-17.986 21.205-17.986s15.189 6.556 21.205 17.986C492.166 131.528 496 149.29 496 168.316zM26.795 118.302c6.016-11.43 13.745-17.986 21.205-17.986s15.189 6.556 21.205 17.986C76.166 131.528 80 149.29 80 168.316s-3.834 36.788-10.795 50.014C63.189 229.76 55.46 236.316 48 236.316s-15.189-6.556-21.205-17.986C19.834 205.103 16 187.341 16 168.316s3.834-36.788 10.795-50.014zm432.76 189.974c-31.698 29.105-88.305 24.268-143.049 19.587-17.464-1.493-35.431-3.02-52.506-3.431V180.553c14.973.857 29.093 4.113 41.222 9.561 21.542 9.676 37.5 26.284 47.429 49.364 11.637 27.048 25.999 46.695 42.686 58.394 10.979 7.697 22.906 11.68 34.545 11.68 4.072 0 8.11-.488 12.058-1.475a8.001 8.001 0 0 0-3.881-15.523c-10.816 2.705-22.415.013-33.538-7.784-14.02-9.829-26.874-27.678-37.173-51.616-25.167-58.498-78.267-68.392-109.169-68.821a8 8 0 0 0-2.18-.308 8 8 0 0 0-2.18.308c-30.902.43-84.001 10.324-109.169 68.821-10.299 23.938-23.154 41.787-37.173 51.616-11.122 7.797-22.72 10.489-33.538 7.784a8.001 8.001 0 0 0-3.881 15.523c15.232 3.809 31.783.184 46.604-10.206 16.687-11.699 31.048-31.346 42.686-58.394 9.93-23.08 25.887-39.688 47.429-49.364 12.129-5.448 26.249-8.704 41.222-9.561v143.879c-17.075.411-35.041 1.939-52.506 3.431-54.744 4.68-111.351 9.518-143.049-19.587-15.555-14.282-24.614-35.961-27.462-65.917 6.797 6.367 14.623 9.957 23.017 9.957 26.916 0 48-36.897 48-84 0-41.76-16.577-75.475-39.094-82.592 9.792-4.638 23.178-7.581 40.32-8.9 30.187-2.323 67.268.911 99.984 3.766 21.426 1.869 41.681 3.632 58.09 3.717.054.001.107.008.161.008.177 0 .36-.003.538-.004.178 0 .361.004.538.004.054 0 .107-.007.161-.008 16.409-.085 36.665-1.848 58.09-3.717 32.715-2.854 69.794-6.089 99.984-3.766 17.142 1.319 30.528 4.262 40.32 8.9C432.577 92.84 416 126.555 416 168.316c0 47.103 21.084 84 48 84 8.394 0 16.22-3.59 23.017-9.957-2.848 29.956-11.906 51.634-27.462 65.917z"/><path d="M464 124.316c-9.731 0-12.542 12.651-13.466 16.809-1.634 7.352-2.534 17.009-2.534 27.191s.9 19.839 2.534 27.191c.924 4.157 3.735 16.809 13.466 16.809s12.542-12.651 13.466-16.809c1.634-7.353 2.534-17.009 2.534-27.191s-.9-19.839-2.534-27.191c-.924-4.158-3.735-16.809-13.466-16.809zM48 212.316c9.731 0 12.542-12.651 13.466-16.809C63.1 188.155 64 178.498 64 168.316s-.9-19.839-2.534-27.191c-.924-4.158-3.735-16.809-13.466-16.809s-12.542 12.651-13.466 16.809C32.9 148.477 32 158.134 32 168.316s.9 19.839 2.534 27.191c.924 4.157 3.735 16.809 13.466 16.809z"/></svg>
