<svg xmlns="http://www.w3.org/2000/svg" viewBox="0 0 512 512"><path d="M81.237 402.031c-40.283 0-73.057-32.774-73.057-73.058V286.03c0-11.802 9.568-21.37 21.37-21.37s21.369 9.568 21.369 21.37v42.943c0 16.716 13.6 30.316 30.317 30.316 11.803 0 21.37 9.568 21.37 21.369.002 11.805-9.567 21.373-21.369 21.373z" fill="#006931"/><path d="M194.728 152.669c0-38.723 31.392-70.116 70.116-70.116h36.906c26.944 0 48.785 21.842 48.785 48.786 0 26.943-21.84 48.785-48.785 48.785h-9.454v191.817c0 26.943-21.842 48.786-48.784 48.786-26.943 0-48.786-21.843-48.786-48.786V152.669h.002z" fill="#00833e"/><path d="M260.609 180.123v237.515c18.509-6.929 31.688-24.771 31.688-45.698V180.123h-31.688z" fill="#6bb587"/><g fill="#00833e"><path d="M260.607 200.058h31.687v3.562h-31.687zM260.607 222.855h31.687v3.562h-31.687zM260.607 245.641h31.687v3.562h-31.687zM260.607 268.438h31.687v3.561h-31.687zM260.607 291.235h31.687v3.561h-31.687zM260.607 314.032h31.687v3.561h-31.687zM260.607 336.829h31.687v3.561h-31.687zM260.607 359.616h31.687v3.561h-31.687z"/></g><g fill="#ffb648"><path d="M194.728 235.767c22.315 0 40.403-18.088 40.403-40.403 0-22.314-18.089-40.403-40.403-40.403v80.806zM194.728 366.838c22.315 0 40.403-18.089 40.403-40.403s-18.089-40.402-40.403-40.402v80.805z"/></g><path d="M381.159 255.413c26.943 0 48.785 21.842 48.785 48.786 0 26.942-21.842 48.784-48.785 48.784h-241.1c-26.943 0-48.786-21.842-48.786-48.784 0-26.943 21.843-48.786 48.786-48.786h241.1z" fill="#006931"/><g fill="#ffb648"><path d="M285.741 255.413c0 22.315 18.089 40.402 40.402 40.402 22.315 0 40.403-18.088 40.403-40.402h-80.805zM154.671 255.413c0 22.315 18.088 40.402 40.403 40.402s40.403-18.088 40.403-40.402h-80.806z"/></g><path d="M455.033 331.875c26.943 0 48.785 21.842 48.785 48.785 0 26.944-21.842 48.786-48.785 48.786H66.185c-26.943 0-48.786-21.842-48.786-48.786 0-26.943 21.842-48.785 48.786-48.785h388.848z" fill="#00833e"/><g fill="#ffb648"><path d="M220.206 331.875c0 22.315 18.088 40.403 40.402 40.403s40.403-18.088 40.403-40.403h-80.805zM89.136 331.875c0 22.315 18.089 40.403 40.404 40.403 22.314 0 40.402-18.088 40.402-40.403H89.136zM432.083 331.875c0 22.315-18.089 40.403-40.403 40.403s-40.403-18.088-40.403-40.403h80.806z"/></g><path d="M272.633 121.877a8.037 8.037 0 1 0 0 16.075 8.037 8.037 0 0 0 0-16.075zm182.4 201.817H434.69a56.88 56.88 0 0 0 3.434-19.496c0-31.411-25.555-56.967-56.965-56.967h-80.681v-58.928h1.273c14.901 0 28.477-5.758 38.638-15.156 13.01-.24 24.442-7.027 31.136-17.205a10.038 10.038 0 0 1 8.246-4.325 8.181 8.181 0 0 0 0-16.362c-.671 0-1.337.034-2 .085 0-.092.007-.182.007-.274a8.181 8.181 0 0 0-16.362 0c0 5.676-2.204 10.835-5.78 14.71a56.693 56.693 0 0 0 3.08-18.438c0-31.411-25.555-56.967-56.965-56.967h-36.906c-43.173 0-78.297 35.124-78.297 78.297v94.563h-46.489c-31.411 0-56.967 25.555-56.967 56.968 0 6.725 1.174 13.3 3.43 19.495H66.185c-2.4 0-4.76.167-7.083.456v-38.119c0-16.294-13.256-29.551-29.55-29.551C13.256 256.481 0 269.737 0 286.031v42.943a80.948 80.948 0 0 0 10.466 39.841 56.89 56.89 0 0 0-1.248 11.846c0 31.411 25.555 56.967 56.967 56.967h388.85c31.411 0 56.965-25.555 56.965-56.967s-25.556-56.967-56.967-56.967zM202.908 152.669c0-34.151 27.784-61.935 61.935-61.935h36.906c22.389 0 40.604 18.215 40.604 40.605 0 9.637-3.381 18.495-9.011 25.466h-4.456a8.181 8.181 0 0 0-8.181 8.181c0 .728.105 1.429.283 2.101a40.35 40.35 0 0 1-19.239 4.857h-9.454a8.181 8.181 0 0 0-8.181 8.181v67.109h-81.208V152.67h.002zm-62.849 110.925h241.1c22.389 0 40.604 18.215 40.604 40.605a40.38 40.38 0 0 1-5 19.496H104.462a40.372 40.372 0 0 1-5.007-19.496c-.001-22.39 18.214-40.605 40.604-40.605zM16.362 328.975v-42.943c0-7.272 5.916-13.19 13.19-13.19 7.272 0 13.189 5.916 13.189 13.19v42.732a57.3 57.3 0 0 0-23.418 19.562 64.724 64.724 0 0 1-2.961-19.351zm438.671 92.29H66.185c-22.389 0-40.605-18.215-40.605-40.605 0-22.389 18.215-40.604 40.605-40.604h388.85c22.389 0 40.604 18.215 40.604 40.604-.001 22.39-18.216 40.605-40.606 40.605z" fill="#1e252b"/></svg>
